<svg xmlns="http://www.w3.org/2000/svg" viewBox="0 0 1600 900"><defs><linearGradient id="sky" x2="0" y2="1"><stop stop-color="#89c9ef"/><stop offset="1" stop-color="#e9f6ff"/></linearGradient><linearGradient id="rock" x2=".3" y2="1"><stop stop-color="#6795b5"/><stop offset="1" stop-color="#234b6a"/></linearGradient></defs><path fill="url(#sky)" d="M0 0h1600v900H0z"/><circle cx="1310" cy="130" r="70" fill="#fff" opacity=".8"/><path fill="#b9d9ea" d="m0 580 190-220 220 230 180-250 240 230 240-200 330 250v280H0z"/><path fill="url(#rock)" d="m0 850 230-260 150 80L700 185l130 160 115-130 340 455 140-115 175 245v100H0z"/><path fill="#fff" d="m380 670 320-485 130 160 115-130 208 279-134-71-63 31-45-86-65 68-83-52-74 104-62-4-95 148-77-30z"/><path fill="#cce6f5" d="m700 185 40 284-83 110 130-51 43-183zm245 30-34 293 95 107-49-247z"/><path fill="#eff8fe" d="m0 850 390-70 315 50 310-85 585 98v57H0z"/></svg>